<?xml version="1.0" standalone="no"?>
<!DOCTYPE svg PUBLIC "-//W3C//DTD SVG 20010904//EN"
 "http://www.w3.org/TR/2001/REC-SVG-20010904/DTD/svg10.dtd">
<svg version="1.0" xmlns="http://www.w3.org/2000/svg"
 width="821.000000pt" height="1280.000000pt" viewBox="0 0 821.000000 1280.000000"
 preserveAspectRatio="xMidYMid meet">
<g transform="translate(0.000000,1280.000000) scale(0.100000,-0.100000)"
fill="#000000" stroke="none">
<path d="M7948 12736 c-306 -159 -854 -309 -1358 -371 -68 -8 -141 -15 -162
-15 l-37 0 -3 53 c-3 52 -3 52 -38 55 -28 2 -54 -8 -125 -52 -100 -60 -124
-68 -275 -91 -236 -37 -507 -119 -706 -214 -112 -54 -264 -147 -279 -171 -12
-20 -24 -9 -35 33 -142 544 -711 800 -1171 527 -142 -84 -275 -243 -340 -405
-32 -82 -59 -189 -59 -242 l0 -33 -121 95 c-215 169 -296 208 -756 360 -172
57 -322 109 -334 116 -12 6 -52 13 -89 15 -36 2 -110 15 -164 29 -121 31 -146
32 -146 5 0 -11 11 -27 25 -36 28 -18 33 -44 9 -44 -8 0 -158 34 -332 75 -174
42 -353 80 -397 84 -65 7 -105 20 -210 66 -71 31 -163 65 -204 76 -92 24 -255
25 -426 4 -66 -8 -140 -16 -165 -17 -41 -3 -45 -5 -48 -31 -5 -43 32 -91 108
-141 38 -26 77 -57 85 -70 17 -25 11 -56 -11 -56 -7 0 -25 -10 -40 -23 -34
-30 -29 -56 25 -125 85 -107 257 -187 446 -207 82 -8 128 -16 123 -20 -2 -2
-49 -13 -106 -24 -118 -24 -158 -42 -175 -78 -10 -22 -8 -27 8 -39 11 -8 48
-38 83 -67 34 -29 86 -65 115 -82 45 -26 52 -34 54 -63 2 -41 30 -73 122 -136
68 -46 68 -46 154 -46 48 0 87 -2 87 -5 0 -3 -9 -14 -20 -25 -30 -30 -36 -68
-14 -90 49 -48 316 -180 364 -180 40 0 69 -18 72 -47 4 -34 24 -39 93 -23 49
12 54 11 91 -13 65 -44 125 -50 368 -43 148 5 217 4 215 -3 -2 -5 -44 -41 -94
-79 -97 -73 -146 -135 -169 -211 -18 -58 -5 -78 39 -61 15 6 29 9 31 7 2 -2
-6 -23 -18 -48 -18 -37 -22 -62 -22 -154 l-1 -110 45 -13 c25 -8 51 -15 58
-18 9 -2 5 -15 -13 -42 -14 -22 -27 -52 -28 -68 -2 -28 0 -29 38 -28 23 1 81
19 136 43 100 43 159 53 159 26 0 -24 -22 -67 -75 -145 -28 -41 -57 -88 -63
-103 -12 -28 -11 -28 40 -52 68 -31 161 -55 214 -55 36 0 98 15 146 34 14 7
16 -4 20 -87 1 -53 7 -99 11 -103 18 -19 124 -8 211 20 86 29 89 29 102 11 9
-11 14 -45 14 -84 0 -94 3 -96 86 -68 38 14 77 28 87 32 13 6 16 4 11 -9 -7
-19 12 -21 50 -6 33 12 53 4 60 -25 6 -23 66 -55 105 -55 10 0 32 -5 50 -11
24 -8 31 -17 31 -37 0 -24 1 -25 14 -7 13 18 16 18 93 1 78 -17 133 -12 133
13 0 16 -192 73 -255 75 -54 1 -63 5 -95 36 -19 20 -50 48 -69 63 l-33 28 48
52 c27 29 51 53 54 54 3 1 14 -12 25 -30 30 -47 64 -44 82 8 7 22 17 43 22 48
5 5 41 -8 81 -29 87 -45 94 -42 132 47 19 46 32 65 47 67 33 5 68 -38 79 -99
5 -30 20 -106 33 -169 23 -111 24 -135 26 -684 3 -535 2 -576 -17 -680 -19
-104 -20 -151 -20 -806 0 -382 -3 -834 -7 -1003 l-6 -309 -26 -10 c-89 -36
-197 -93 -266 -142 -271 -189 -313 -210 -432 -225 -80 -9 -180 2 -239 29 -58
25 -309 260 -369 345 -134 189 -244 462 -340 840 -97 380 -125 577 -107 748
29 267 141 385 330 347 48 -10 66 -20 112 -65 48 -46 69 -58 158 -89 280 -97
397 -84 642 68 47 29 128 77 180 106 250 139 340 243 340 394 l0 54 -47 24
c-45 21 -63 23 -278 29 -140 3 -241 10 -258 17 -23 10 -34 9 -57 -3 -16 -8
-100 -35 -187 -61 -87 -25 -168 -52 -180 -60 -13 -8 -35 -38 -49 -67 -65 -130
-111 -132 -268 -13 -105 80 -130 90 -211 90 -61 0 -87 -6 -200 -51 -71 -29
-142 -54 -157 -58 -19 -3 -45 -29 -86 -83 -154 -203 -250 -371 -301 -526 -54
-167 -56 -184 -55 -553 2 -320 3 -345 23 -397 11 -31 38 -122 60 -203 101
-376 245 -722 390 -939 72 -109 214 -261 313 -337 239 -183 496 -276 773 -280
117 -2 122 -1 190 31 39 18 78 38 88 43 11 6 20 9 21 7 2 -2 25 -59 53 -129
l50 -125 -23 -33 c-12 -18 -33 -65 -45 -104 -32 -97 -32 -264 0 -382 31 -117
94 -236 161 -306 l56 -60 -24 -32 c-13 -18 -44 -71 -68 -119 l-44 -88 -44 0
c-39 0 -52 -7 -137 -76 -203 -163 -328 -308 -370 -429 -59 -169 -26 -304 132
-541 70 -104 105 -138 229 -225 98 -69 92 -58 69 -120 -25 -65 -23 -164 5
-222 47 -97 170 -176 319 -205 l85 -17 -82 -85 c-176 -184 -300 -385 -360
-584 -17 -58 -21 -97 -21 -211 1 -128 3 -146 28 -208 73 -185 203 -290 377
-305 l78 -7 -13 -37 c-7 -20 -35 -68 -64 -106 -65 -89 -81 -127 -81 -201 0
-58 2 -61 56 -125 60 -70 71 -76 194 -95 200 -32 403 14 481 109 44 52 64 131
50 193 -12 54 -31 84 -103 167 -91 106 -109 222 -83 524 9 113 15 256 13 322
l-4 119 106 -105 c146 -144 180 -208 165 -308 -6 -38 -17 -56 -68 -109 -56
-59 -63 -63 -94 -57 -18 3 -40 4 -48 0 -14 -5 -14 -9 0 -35 10 -21 30 -35 70
-50 31 -12 61 -21 68 -21 23 1 106 70 147 122 81 101 120 212 120 339 0 142
-25 212 -142 390 -114 172 -111 166 -82 225 40 81 52 209 28 295 -3 12 13 20
78 36 182 46 285 104 373 210 100 121 145 230 145 352 0 103 -22 178 -92 311
-134 257 -196 342 -291 396 l-71 41 1 163 1 162 32 16 c63 30 138 110 176 187
34 68 36 81 36 162 0 63 -6 108 -22 158 -29 92 -43 118 -172 325 l-109 175
108 6 c184 10 283 45 556 197 89 50 181 98 204 107 29 11 43 24 45 38 2 14 17
28 40 39 44 21 106 82 249 245 126 144 162 196 190 274 13 36 38 75 65 103 24
26 60 78 79 116 19 38 77 141 129 229 307 519 376 751 363 1239 -9 395 -95
657 -272 838 -92 93 -166 135 -284 160 -92 19 -163 10 -274 -35 -42 -17 -111
-45 -153 -62 -47 -18 -103 -33 -145 -36 l-69 -6 0 39 c0 133 -56 167 -308 184
-198 14 -259 25 -335 61 -81 37 -209 65 -258 55 -21 -3 -49 -16 -64 -28 -25
-19 -27 -26 -23 -76 3 -30 1 -75 -4 -100 -7 -41 -5 -50 18 -86 53 -81 160
-201 246 -275 201 -176 391 -250 639 -251 135 0 179 18 274 110 73 71 146 119
184 120 8 0 25 -10 39 -22 l23 -23 39 22 38 22 40 -43 c156 -169 180 -507 66
-919 -107 -385 -321 -672 -884 -1186 -118 -108 -237 -215 -264 -239 -59 -51
-185 -117 -199 -103 -14 14 -10 79 6 126 25 72 -7 244 -70 369 -14 28 -49 83
-79 122 l-54 71 -61 7 c-109 13 -106 10 -114 129 -4 57 -2 326 5 598 6 272 13
789 15 1149 2 501 6 680 17 760 8 58 13 109 10 113 -2 5 -9 48 -16 95 -11 80
-10 91 9 137 18 45 20 76 22 315 2 304 5 342 39 426 29 74 30 86 2 135 -16 29
-19 42 -11 50 9 9 15 0 23 -32 46 -171 163 -297 313 -337 l39 -11 29 64 c16
35 33 66 38 69 5 3 14 -16 20 -42 20 -80 58 -150 108 -200 49 -49 151 -107
209 -118 27 -5 32 -3 37 18 4 12 4 57 1 99 -4 42 -4 89 0 103 l6 26 57 -47
c102 -82 217 -117 267 -80 18 13 17 18 -8 126 -15 61 -30 135 -33 164 l-6 52
34 -31 c57 -53 148 -112 201 -130 62 -20 167 -16 220 10 36 17 37 19 24 45 -8
14 -24 35 -36 46 -29 26 -56 64 -64 92 -7 21 -6 21 45 6 44 -13 61 -13 106 -3
30 6 57 18 60 26 10 26 -16 196 -37 238 -11 23 -20 45 -20 48 0 9 54 25 130
39 36 6 78 19 93 28 26 15 28 19 22 59 -3 23 -15 68 -26 99 -25 75 -25 119 3
141 68 55 66 46 27 174 -12 43 -20 80 -16 84 4 4 32 2 63 -5 83 -16 141 -14
148 5 3 9 6 37 6 62 0 65 10 76 60 74 23 -2 65 4 93 11 29 8 64 18 80 21 24 6
27 11 27 44 -1 20 -8 55 -16 77 -9 22 -18 51 -21 64 -6 22 -4 23 28 18 171
-32 261 -29 338 12 34 17 36 21 35 67 0 27 -4 64 -8 82 l-8 32 68 0 c109 0
196 29 275 91 34 26 36 32 29 62 -4 17 -15 49 -24 70 -18 41 -14 57 11 57 9 0
53 10 97 22 58 15 90 30 118 56 65 59 48 90 -68 124 -41 12 -71 25 -67 28 4 4
87 33 183 65 96 31 208 74 249 94 75 36 181 122 181 146 0 7 -28 25 -62 39
-35 15 -71 35 -80 43 -17 15 -15 19 33 70 33 35 66 85 94 146 58 122 58 129
15 144 -65 22 -94 16 -222 -51z m126 -102 c-18 -55 -42 -93 -88 -142 -92 -99
-258 -157 -631 -222 -147 -26 -384 -74 -655 -134 -195 -43 -370 -76 -394 -76
-6 1 7 16 28 36 40 35 105 60 184 71 74 10 43 28 -49 28 -65 0 -84 3 -84 14 0
27 70 50 208 71 448 66 1021 230 1369 394 88 41 94 43 111 27 17 -17 17 -20 1
-67z m-7431 -73 c77 -19 136 -41 174 -64 47 -28 72 -36 133 -42 57 -5 80 -12
102 -31 37 -30 68 -38 285 -74 240 -39 375 -71 368 -87 -3 -7 -7 -19 -11 -27
-6 -16 42 -26 126 -26 53 0 100 -19 100 -40 0 -5 -13 -16 -30 -25 -47 -24
-469 -18 -758 11 -49 5 -52 7 -46 30 5 19 2 24 -13 24 -10 0 -26 -8 -35 -19
-15 -18 -19 -18 -139 5 -345 65 -528 131 -656 236 -50 42 -113 113 -113 129 0
7 58 21 135 33 79 12 264 -4 378 -33z m7381 -204 c17 -12 15 -16 -29 -54 -62
-55 -198 -125 -331 -169 -105 -35 -112 -36 -219 -31 -81 3 -126 11 -172 28
-35 13 -63 26 -63 29 0 16 65 40 146 54 49 9 130 30 180 47 62 21 107 31 149
30 49 0 76 7 145 38 91 42 162 52 194 28z m-5809 -94 c138 -46 293 -95 345
-109 251 -67 367 -117 525 -224 218 -148 261 -278 209 -630 -36 -243 -3 -374
122 -491 27 -25 70 -58 96 -73 46 -27 206 -86 233 -86 19 0 24 -20 31 -127 l7
-96 -144 6 c-185 8 -301 35 -381 89 -14 10 -44 18 -67 18 -49 0 -53 13 -8 27
l32 9 -1 66 c-1 37 -9 78 -18 95 -18 35 -71 83 -92 83 -25 0 -28 -30 -5 -54
11 -12 21 -29 21 -36 0 -8 -13 0 -30 18 -44 48 -160 94 -160 64 0 -13 50 -55
107 -91 47 -29 63 -48 63 -72 0 -16 -16 -10 -56 22 -51 41 -82 53 -100 38 -23
-19 -17 -26 40 -49 61 -24 91 -52 83 -75 -10 -23 -33 -18 -72 17 -35 31 -37
31 -86 20 -28 -7 -61 -12 -74 -12 -32 0 -49 33 -41 80 4 29 1 44 -13 61 -18
22 -21 22 -70 11 -76 -17 -89 -15 -119 19 -32 37 -62 89 -62 106 0 7 16 30 35
52 63 70 34 113 -61 93 -65 -14 -74 -4 -51 56 30 78 31 77 -50 80 -83 3 -86 8
-54 78 11 25 41 59 77 88 60 48 104 100 104 123 0 23 -72 27 -175 10 -123 -21
-165 -21 -211 -2 l-36 15 18 27 c10 16 28 36 41 46 41 33 22 82 -47 117 -49
25 -110 78 -110 95 0 29 84 55 206 65 139 11 194 24 194 47 0 9 -18 33 -40 54
-30 28 -62 45 -137 69 -122 40 -154 59 -203 124 -33 44 -120 210 -120 230 0
10 41 -2 305 -91z m4120 65 c-35 -176 -128 -307 -288 -404 -50 -31 -70 -37
-151 -44 -141 -14 -252 -47 -311 -94 -20 -15 -20 -15 1 -16 12 0 98 14 190 32
173 32 362 43 446 25 35 -7 36 -9 27 -39 -14 -51 -55 -84 -158 -129 -53 -23
-102 -46 -108 -51 -21 -16 -5 -28 38 -28 36 0 41 -4 54 -32 7 -18 15 -53 17
-77 l3 -45 -75 -18 c-41 -9 -108 -17 -147 -18 -87 0 -91 -9 -33 -65 50 -49 51
-76 5 -159 -21 -39 -35 -77 -35 -98 0 -23 -7 -41 -21 -54 -12 -10 -41 -60 -65
-110 -24 -49 -51 -97 -61 -106 -10 -8 -53 -20 -95 -27 -43 -6 -92 -17 -109
-24 l-32 -13 2 -78 2 -79 -41 7 c-57 9 -109 -7 -159 -51 -40 -34 -47 -36 -100
-34 -51 2 -61 -1 -104 -34 l-48 -37 -65 12 c-59 11 -66 11 -100 -9 -33 -20
-42 -21 -86 -11 -36 7 -68 7 -115 -1 -59 -10 -66 -14 -78 -43 -20 -47 -29
-106 -17 -106 18 0 42 30 42 52 0 17 2 18 15 8 8 -7 15 -23 15 -36 0 -38 27
-28 46 16 l11 25 12 -24 c19 -35 15 -98 -13 -186 -29 -89 -33 -150 -12 -158
22 -9 36 14 36 60 0 24 12 71 26 106 18 43 28 89 33 151 l6 89 32 -27 c17 -15
37 -43 44 -64 17 -49 16 -169 -1 -314 l-13 -118 -32 0 c-47 0 -129 45 -158 88
-36 51 -62 115 -83 195 -19 77 -40 94 -93 76 -62 -22 -64 -9 -12 77 57 94 77
147 87 232 l6 61 72 42 c193 113 329 247 405 398 31 60 53 174 45 228 -5 32
-22 63 -66 121 -46 59 -58 82 -55 102 3 14 12 60 21 103 9 43 16 118 16 165
l1 87 49 38 c47 36 50 37 50 16 0 -12 -18 -48 -40 -81 -67 -101 -54 -119 93
-138 42 -5 91 -17 108 -26 l32 -16 -5 -69 c-3 -43 -11 -76 -21 -87 -21 -23
-10 -41 53 -86 28 -20 55 -49 61 -63 14 -38 -14 -109 -50 -128 -24 -12 -29
-22 -34 -72 -7 -65 -27 -120 -60 -166 -28 -39 -128 -104 -181 -118 -64 -17
-85 -35 -92 -78 -5 -32 -11 -41 -32 -46 -15 -4 -67 -24 -117 -44 -49 -21 -102
-41 -117 -45 -23 -5 -26 -9 -19 -29 10 -24 29 -26 78 -6 28 12 34 11 53 -6 17
-16 24 -17 38 -7 42 30 63 36 73 21 8 -11 13 -9 30 14 15 19 27 26 40 22 16
-5 19 -1 19 24 0 29 3 31 34 31 42 0 54 15 26 30 -11 6 -20 18 -20 27 0 12 6
14 28 9 64 -16 80 -17 87 -6 4 6 2 17 -4 23 -22 22 -13 36 18 24 39 -14 65 -4
51 22 -17 32 -12 38 31 44 56 7 65 18 49 57 -16 38 -7 46 53 56 41 7 47 18 17
36 -29 18 -25 26 20 39 68 21 78 57 23 81 -38 17 -39 18 -23 28 8 6 39 10 68
10 43 0 52 3 52 18 0 9 -14 25 -30 34 -38 22 -38 41 0 55 16 6 33 20 36 30 7
18 36 84 41 93 2 3 -34 2 -79 -1 -46 -3 -84 -5 -86 -4 -1 1 0 9 4 18 3 9 22
19 42 23 48 9 57 15 41 25 -21 13 -66 11 -106 -6 -20 -8 -38 -13 -41 -11 -10
10 45 89 75 107 45 28 42 43 -7 35 -32 -5 -40 -3 -40 9 0 9 17 19 44 26 52 13
88 45 67 58 -8 5 -36 1 -68 -11 -60 -21 -106 -17 -82 7 8 8 37 22 64 32 54 20
67 46 25 51 -14 2 -56 -9 -94 -23 -84 -32 -86 -13 -3 28 32 15 55 32 52 38
-12 18 -81 8 -144 -21 -35 -17 -66 -28 -69 -25 -10 9 42 57 96 87 57 33 66 48
26 48 -29 0 -57 -13 -97 -47 -55 -45 -57 -7 -3 61 17 22 38 53 46 70 33 68
221 139 675 256 248 64 329 87 415 118 73 27 73 27 65 -10z m-5855 -91 c178
-61 420 -114 605 -133 36 -4 68 -10 70 -15 3 -4 -21 -10 -52 -14 -120 -13
-189 -27 -224 -47 -37 -20 -38 -20 -150 -3 -279 43 -439 112 -519 226 l-21 29
23 9 c13 5 30 16 37 25 12 14 19 12 69 -13 32 -16 104 -45 162 -64z m6669
-138 c152 -14 269 -48 353 -104 68 -45 108 -61 143 -56 34 4 -33 -33 -100 -56
-116 -40 -187 -45 -610 -38 -338 6 -415 5 -495 -8 -52 -9 -94 -15 -95 -14 -4
22 -29 43 -56 47 l-34 6 32 17 c18 9 38 17 46 17 7 0 37 7 65 15 87 26 63 36
-70 30 l-123 -7 25 21 c51 42 231 86 475 115 225 27 290 30 444 15z m-5450
-26 c162 -5 209 -9 190 -17 -39 -16 -311 -12 -413 7 -101 19 -129 33 -46 23
30 -3 151 -9 269 -13z m-34 -73 c66 -5 169 -10 228 -10 105 0 131 -10 65 -25
l-33 -7 40 -14 c22 -8 85 -21 140 -28 99 -13 100 -13 60 -24 -97 -27 -254 -42
-585 -56 -436 -19 -595 -43 -720 -113 l-45 -25 -82 32 c-99 38 -144 67 -162
104 -18 39 -4 49 77 54 51 3 83 11 137 38 82 40 201 72 317 84 90 9 372 4 563
-10z m467 -22 c-8 -8 -17 -8 -34 0 -22 10 -21 11 12 11 26 1 31 -2 22 -11z
m4944 -189 c207 4 264 -7 319 -61 l39 -40 -25 -13 c-106 -56 -320 -64 -559
-21 -80 14 -197 35 -260 46 -63 12 -154 24 -202 27 -49 3 -88 9 -88 14 0 8 68
36 122 50 18 5 137 6 263 2 127 -3 302 -5 391 -4z m-5186 -19 c-8 -6 -23 -10
-32 -10 -9 0 -29 -5 -45 -11 -40 -15 -16 -25 82 -34 74 -6 125 -24 125 -44 0
-4 -91 -20 -202 -35 -336 -45 -477 -78 -575 -136 -28 -16 -41 -18 -90 -10 -32
6 -95 10 -141 10 l-82 0 -59 53 c-33 28 -58 56 -57 62 3 14 81 51 166 80 81
27 191 48 310 60 91 9 603 32 610 27 2 -2 -2 -7 -10 -12z m4610 -121 c58 -11
177 -23 266 -28 141 -6 165 -10 197 -30 55 -33 102 -95 121 -157 6 -19 1 -23
-38 -33 -57 -14 -170 -14 -238 0 -29 6 -137 42 -239 80 -199 74 -292 99 -376
99 -29 0 -53 3 -53 6 0 17 25 47 53 64 43 27 169 26 307 -1z m-4411 -70 c-40
-57 -97 -88 -259 -139 -189 -61 -245 -93 -327 -193 -18 -23 -29 -27 -70 -27
-61 1 -102 16 -208 76 l-86 49 38 33 c81 72 236 131 433 166 128 23 416 63
463 65 l38 1 -22 -31z m4329 -98 c121 -40 186 -74 215 -113 28 -37 55 -109 59
-153 3 -29 1 -31 -54 -45 -72 -18 -156 -6 -243 36 -66 30 -180 136 -209 193
-17 33 -17 34 0 27 11 -4 45 -14 78 -21 l58 -14 -23 25 c-12 13 -48 36 -78 51
-70 33 -68 32 -51 44 25 17 151 1 248 -30z m-3008 -39 c0 -30 89 -184 145
-252 30 -37 82 -88 116 -115 63 -49 199 -125 225 -125 20 0 19 -2 -22 -45 -38
-41 -39 -48 -19 -142 7 -29 5 -34 -21 -44 -51 -19 -144 -7 -220 31 -78 38
-188 140 -222 206 -29 58 -43 174 -32 271 16 139 34 242 42 237 4 -3 8 -13 8
-22z m-1360 -17 c0 -8 -9 -20 -20 -27 -34 -22 -22 -31 35 -26 l55 5 -22 -24
-21 -23 33 0 c18 0 56 13 84 29 48 27 126 47 126 32 0 -10 -179 -126 -248
-161 -128 -63 -237 -93 -359 -98 -61 -2 -123 -2 -137 2 -23 6 -24 8 -14 36 18
53 100 132 174 169 67 34 261 100 297 101 9 0 17 -7 17 -15z m2907 -231 c-5
-65 -53 -176 -116 -267 -42 -62 -168 -177 -230 -211 -70 -37 -156 -46 -190
-19 l-23 19 21 46 c27 60 27 82 -4 135 -24 40 -25 44 -8 49 159 54 333 199
420 349 l38 66 49 -53 48 -52 -5 -62z m1177 152 c19 -8 73 -50 121 -94 51 -48
103 -87 130 -97 36 -14 44 -22 49 -48 3 -18 8 -46 11 -63 4 -18 3 -34 -2 -37
-16 -10 -114 12 -166 37 -29 14 -87 45 -130 69 -48 27 -96 47 -124 50 -41 4
-84 29 -72 42 3 3 32 -2 64 -10 32 -9 60 -14 62 -11 6 6 -17 25 -62 50 -56 30
-56 48 0 65 33 10 43 17 36 24 -35 35 19 50 83 23z m-3860 -158 l-17 -85 -106
-16 c-146 -23 -241 -29 -274 -20 -27 8 -23 11 55 42 104 42 239 110 298 150
25 17 48 27 53 22 5 -5 1 -46 -9 -93z m3806 -99 c87 -39 149 -123 168 -227 5
-29 7 -52 3 -52 -3 1 -35 37 -71 82 -74 93 -142 150 -217 185 -29 14 -53 26
-53 29 0 14 130 1 170 -17z m-108 -71 c104 -55 172 -155 194 -283 l7 -40 -27
27 c-28 27 -82 55 -204 104 -86 34 -157 88 -130 99 9 3 30 -1 47 -9 42 -22 71
-21 71 3 0 11 -8 22 -19 26 -10 3 -26 14 -35 24 -16 17 -15 20 1 50 10 17 22
31 27 31 4 0 35 -14 68 -32z m-3562 -55 c0 -5 -14 -20 -32 -35 -43 -35 -30
-46 22 -19 48 25 60 26 60 6 0 -8 -25 -30 -55 -50 -30 -19 -55 -40 -55 -45 0
-6 14 -16 30 -22 23 -7 28 -13 20 -23 -5 -6 -7 -15 -3 -18 10 -11 52 -8 75 4
17 9 20 9 16 -2 -18 -48 -19 -59 -5 -59 8 0 20 7 27 15 7 8 18 15 25 15 7 0
15 -7 19 -15 3 -8 15 -15 26 -15 26 0 25 -8 -5 -52 -34 -50 -99 -93 -181 -120
-44 -14 -89 -38 -124 -67 -63 -51 -131 -84 -163 -79 -34 5 -35 73 -1 172 32
94 35 147 11 173 -9 11 -17 24 -17 29 0 5 21 35 46 67 48 61 114 114 167 134
36 13 97 17 97 6z m1763 -58 l139 0 30 -34 31 -35 -38 -34 c-33 -30 -41 -34
-76 -28 l-39 6 0 -51 0 -52 40 7 c62 10 97 -13 105 -67 12 -77 -20 -159 -109
-284 -49 -69 -53 -73 -91 -73 -55 0 -137 40 -169 83 -15 20 -36 59 -47 88 -22
58 -35 187 -25 243 7 36 8 37 43 30 35 -7 36 -6 29 17 -5 13 -10 37 -13 52 -6
30 -19 32 -65 12 -15 -6 -18 -2 -18 20 0 19 14 41 45 72 36 37 48 43 67 37 13
-5 85 -8 161 -9z m1730 -118 c193 -87 270 -154 302 -260 24 -80 22 -84 -39
-102 -100 -29 -157 2 -268 147 -67 89 -138 138 -200 138 -39 0 -46 8 -27 27 7
7 30 10 60 6 55 -7 60 0 23 29 -24 19 -24 21 -8 39 25 28 50 24 157 -24z
m-3180 -101 c25 -19 21 -63 -13 -134 -17 -35 -30 -77 -30 -93 0 -24 4 -29 25
-29 29 0 38 18 49 92 8 54 20 67 35 39 20 -37 11 -83 -41 -200 -50 -111 -52
-121 -57 -225 l-6 -109 -51 -29 c-57 -32 -128 -44 -196 -34 -74 11 -75 13 -25
112 25 49 80 175 122 279 81 199 150 345 163 345 4 0 15 -7 25 -14z m2903 -21
c9 -14 26 -25 38 -25 78 0 197 -84 251 -176 15 -25 56 -112 91 -192 61 -137
64 -148 47 -160 -38 -27 -59 -24 -123 17 -35 23 -67 41 -71 41 -5 0 -36 56
-68 125 -73 153 -105 198 -180 255 -63 48 -106 101 -98 122 3 8 9 2 17 -14 9
-19 21 -28 37 -28 27 0 29 8 7 38 -14 21 -14 22 10 22 16 0 32 -9 42 -25z m-7
-201 c89 -98 160 -236 242 -473 l39 -114 -60 6 c-128 14 -220 92 -320 270 -34
62 -81 145 -104 185 -22 41 -56 92 -75 114 -23 27 -30 43 -23 50 16 16 50 0
78 -38 33 -43 54 -44 54 -3 0 27 3 31 21 26 19 -5 20 -2 14 33 -4 22 -4 44 0
50 8 14 67 -33 134 -106z m-2679 91 c0 -8 -4 -15 -9 -15 -13 0 -22 16 -14 24
11 11 23 6 23 -9z m-445 -56 c4 -6 1 -37 -6 -68 l-12 -58 -81 -41 c-93 -48
-158 -72 -193 -72 l-24 0 18 30 c29 50 89 102 186 162 101 62 103 63 112 47z
m433 -15 c1 -1 0 -8 -4 -17 -4 -12 -13 -15 -33 -11 -34 9 -34 9 -22 33 10 18
14 19 34 8 12 -6 23 -12 25 -13z m1498 -47 c-31 -103 -95 -180 -240 -290 -45
-34 -105 -85 -133 -113 -60 -59 -74 -46 -24 23 31 43 72 77 171 143 94 62 117
86 155 165 33 69 73 130 81 122 2 -2 -2 -25 -10 -50z m-1267 29 c7 -8 9 -31 5
-61 -6 -43 -5 -47 12 -43 13 2 21 14 24 37 6 42 27 52 36 16 3 -14 14 -31 24
-38 14 -10 18 -35 23 -152 6 -139 23 -224 54 -271 14 -21 13 -28 -12 -81 -14
-32 -38 -70 -52 -86 l-27 -27 -29 27 c-45 43 -79 119 -85 190 -4 56 -7 64 -28
69 -23 6 -24 10 -24 89 0 97 15 218 36 293 16 54 24 61 43 38z m-169 -16 c0
-11 -7 -20 -15 -20 -17 0 -18 2 -9 24 9 23 24 20 24 -4z m2166 -28 c11 -9 32
-34 48 -54 15 -21 34 -38 42 -38 27 0 27 30 -2 67 l-27 36 28 -7 c60 -15 130
-93 183 -206 36 -73 36 -76 42 -235 5 -139 9 -166 28 -202 31 -58 29 -75 -5
-67 -63 14 -111 44 -165 102 l-58 61 0 73 c-1 142 -46 280 -139 417 -23 33
-41 62 -41 65 0 13 46 4 66 -12z m-2249 -18 c2 -7 11 -10 19 -7 8 3 14 -1 14
-11 0 -12 -10 -16 -37 -16 -21 0 -48 3 -60 6 -18 5 -20 9 -12 28 8 18 17 21
41 18 16 -3 32 -10 35 -18z m521 -6 c7 -7 12 -27 12 -44 0 -18 5 -36 12 -40
14 -9 38 23 38 53 0 21 2 22 20 11 32 -20 57 -84 75 -188 19 -113 45 -176 77
-191 22 -10 24 -15 20 -77 -2 -37 -6 -69 -9 -72 -9 -9 -97 45 -140 87 -50 49
-104 156 -122 241 -13 61 -15 232 -3 232 4 0 13 -5 20 -12z m1452 -65 c6 -58
12 -68 35 -60 10 4 15 20 15 47 0 22 4 40 9 40 10 0 46 -42 55 -63 8 -21 26
15 26 56 0 20 4 37 9 37 31 0 125 -161 161 -275 29 -92 30 -221 4 -285 -13
-32 -18 -68 -18 -128 l1 -82 -36 22 c-20 12 -64 40 -99 62 -78 50 -70 25 -117
364 -9 67 -27 141 -44 185 -16 39 -32 87 -36 105 -6 29 -5 33 12 30 14 -2 19
-15 23 -55z m-1853 -10 c-3 -27 -11 -79 -18 -117 -11 -68 -12 -69 -26 -42 -36
68 -23 167 24 195 26 15 26 15 20 -36z m799 12 c23 -17 49 -58 83 -131 28 -58
51 -109 51 -113 0 -17 -84 -121 -97 -121 -24 0 -88 37 -120 70 -47 49 -90 136
-108 224 -8 43 -14 81 -11 83 3 3 14 -14 26 -36 23 -46 40 -46 40 0 0 37 27
39 40 3 13 -33 45 -29 46 6 2 49 4 50 50 15z m139 -36 c22 -23 60 -54 84 -70
36 -23 41 -30 26 -35 -33 -13 -68 11 -117 79 -54 76 -51 87 7 26z m-1092 22
c13 -5 27 -17 30 -25 5 -13 -3 -16 -52 -16 -57 0 -58 1 -53 25 5 27 31 33 75
16z m11 -102 c24 -11 50 -61 39 -73 -4 -3 -25 -6 -48 -6 -42 0 -65 -13 -65
-37 0 -10 21 -13 80 -13 88 0 103 -12 36 -29 -24 -6 -54 -19 -67 -30 -21 -17
-22 -20 -7 -26 9 -4 44 -5 78 -3 70 4 81 -13 20 -31 -46 -14 -71 -47 -44 -58
9 -3 35 -1 58 5 39 10 56 8 56 -6 0 -4 -10 -12 -22 -17 -13 -6 -23 -19 -23
-29 0 -31 -79 -68 -140 -64 l-50 3 -13 55 c-13 57 -11 302 3 348 6 18 15 22
46 22 21 0 49 -5 63 -11z m1473 -88 c35 -22 48 -50 39 -87 -6 -21 -9 -23 -26
-14 -34 18 -100 86 -100 103 0 23 47 22 87 -2z m-915 -158 c11 -18 26 -53 33
-78 13 -40 12 -45 -2 -45 -9 0 -30 16 -49 35 -32 34 -36 47 -70 215 -5 23 11
0 88 -127z m846 26 c30 -73 60 -214 48 -226 -8 -8 -73 44 -93 73 -17 26 -113
109 -134 116 -15 5 10 55 43 85 24 22 89 45 99 34 3 -3 20 -40 37 -82z m-111
-154 c114 -115 146 -169 158 -265 8 -65 9 -66 -80 65 -37 55 -103 146 -146
203 -65 85 -75 102 -58 102 13 0 60 -39 126 -105z m-34 -114 c26 -39 42 -81
32 -81 -4 0 -38 16 -76 36 -108 57 -149 117 -119 175 10 18 15 16 75 -37 35
-31 75 -73 88 -93z m-978 29 c17 -19 17 -20 -9 -29 -14 -6 -26 -15 -26 -21 0
-5 -4 -10 -9 -10 -10 0 -23 58 -15 71 9 15 40 10 59 -11z m1064 -223 c47 -46
84 -98 96 -137 7 -23 4 -22 -31 11 -22 20 -73 58 -114 84 -126 80 -210 161
-210 203 0 17 210 -114 259 -161z m-156 -35 c21 -9 76 -48 123 -87 l85 -70 -5
-950 c-5 -886 -14 -1412 -35 -1885 -7 -147 -5 -254 6 -434 19 -282 14 -322
-45 -381 -20 -20 -58 -47 -83 -60 -56 -29 -178 -69 -186 -62 -3 3 2 230 11
504 25 793 36 1368 45 2429 5 546 12 997 15 1003 10 15 24 14 69 -7z m-803
-931 c-16 -32 -72 -59 -159 -80 -46 -11 -86 -22 -89 -25 -2 -3 8 -10 23 -16
21 -8 43 -8 79 1 125 28 137 29 172 14 69 -29 28 -95 -72 -115 -79 -16 -131
-38 -139 -57 -8 -22 13 -33 42 -22 50 19 46 8 -12 -32 -125 -84 -151 -94 -252
-94 -51 0 -93 -3 -93 -6 0 -4 10 -19 22 -34 20 -26 25 -27 87 -22 36 2 88 14
115 26 44 19 55 20 102 10 28 -6 64 -9 78 -5 31 8 93 60 101 85 4 13 20 20 55
25 31 4 97 31 177 71 70 35 151 69 178 76 28 6 56 13 63 15 6 2 12 11 12 20 0
28 -110 11 -184 -28 -34 -17 -91 -47 -127 -65 -36 -19 -84 -37 -107 -40 -38
-5 -42 -3 -42 15 0 32 25 50 99 72 38 11 75 27 82 36 12 15 9 16 -38 9 -51 -7
-52 -6 -55 22 -2 21 -12 32 -41 46 -21 10 -40 24 -43 32 -6 13 41 64 59 65 20
0 57 -51 57 -80 0 -37 14 -39 37 -4 14 22 15 33 6 66 l-11 41 127 -6 c126 -5
182 -16 215 -40 17 -12 16 -15 -3 -65 -12 -29 -21 -64 -21 -77 0 -19 -11 -30
-50 -50 -27 -14 -121 -69 -207 -122 -87 -53 -196 -114 -242 -136 -82 -40 -83
-41 -63 -58 21 -16 21 -17 3 -33 -29 -27 -79 -36 -189 -36 -202 0 -340 32
-411 96 -32 29 -76 54 -129 75 -110 42 -134 61 -130 108 l3 36 63 -3 c55 -2
62 -1 62 16 0 10 -13 30 -28 45 -25 24 -36 27 -93 27 -244 -1 -420 -162 -494
-454 -99 -391 -27 -880 196 -1329 32 -64 75 -143 95 -175 135 -211 316 -384
571 -544 156 -98 260 -138 364 -138 141 0 250 47 479 207 80 55 175 117 212
137 l66 37 16 -23 c11 -15 16 -45 16 -94 l0 -71 -89 -32 c-217 -78 -314 -180
-336 -353 -7 -55 -9 -58 -51 -79 -45 -21 -84 -61 -84 -85 0 -22 27 -16 48 11
11 14 23 25 26 25 3 0 6 -31 6 -69 l0 -69 -82 -30 c-121 -43 -189 -56 -313
-56 -158 0 -293 34 -360 91 -26 22 -69 43 -123 60 -117 36 -208 114 -310 264
-19 28 -42 49 -57 53 -30 8 -122 142 -190 276 -132 264 -319 818 -367 1090
-19 108 -16 401 6 520 76 430 268 761 511 881 75 37 96 43 169 47 96 5 120 -4
206 -78 101 -86 136 -105 200 -105 72 0 100 19 150 98 65 105 62 103 178 141
97 33 214 63 250 65 9 1 10 -4 2 -18z m1544 -70 c37 -18 74 -43 82 -57 18 -27
34 -23 34 7 0 19 2 19 33 -4 40 -31 87 -55 151 -78 70 -24 27 -24 -70 1 -90
24 -131 20 -163 -14 -31 -33 -57 -25 -35 10 17 24 13 54 -6 54 -6 0 -18 -16
-27 -35 -12 -26 -21 -34 -32 -29 -9 4 -48 15 -87 24 -39 10 -88 25 -107 35
-37 17 -67 65 -67 105 0 22 2 22 114 18 104 -4 120 -7 180 -37z m388 -63 c101
-38 151 -70 167 -105 11 -23 10 -29 -5 -40 -10 -7 -27 -13 -38 -13 -30 0 38
-45 89 -59 99 -27 184 -10 356 72 161 77 186 84 262 68 89 -17 254 -100 318
-159 90 -82 145 -216 191 -457 19 -104 22 -154 23 -375 0 -173 -4 -279 -14
-330 -19 -108 -75 -275 -138 -414 -30 -67 -75 -170 -99 -230 -53 -131 -66
-152 -150 -253 -44 -54 -91 -129 -150 -243 -118 -231 -262 -416 -454 -588
-165 -148 -280 -220 -495 -312 -242 -104 -432 -145 -512 -112 l-31 14 51 81
c93 151 136 274 137 392 l0 50 52 24 c35 16 90 60 168 136 80 78 135 122 177
144 73 36 119 75 158 132 38 53 106 99 290 192 83 42 177 98 210 124 71 58
262 283 347 408 212 314 300 671 258 1046 -28 262 -97 405 -247 518 l-68 51
-90 0 c-98 0 -201 -21 -225 -47 -14 -14 -8 -15 55 -10 39 4 98 9 132 13 33 4
73 4 87 0 36 -9 66 -41 66 -71 0 -37 -34 -40 -125 -10 -89 29 -108 27 -222
-16 -41 -16 -94 -29 -118 -29 -46 0 -65 -19 -39 -40 59 -50 -77 -120 -231
-120 -45 0 -144 12 -221 26 -110 20 -147 31 -176 52 -114 84 -218 164 -218
168 0 3 11 9 25 14 48 18 -1 79 -118 147 -87 50 -137 89 -137 105 0 6 8 4 18
-5 25 -23 64 -36 145 -48 90 -13 134 -26 170 -51 30 -21 35 -49 12 -68 -29
-24 -18 -70 25 -111 37 -35 41 -37 70 -26 32 12 23 14 227 -43 97 -27 141 -20
191 30 54 53 48 114 -14 142 -34 16 -40 4 -20 -41 11 -24 15 -47 11 -61 -7
-21 -11 -22 -99 -18 -140 7 -221 51 -311 170 -44 59 -46 63 -28 76 32 24 128
11 218 -30 101 -45 117 -50 135 -38 13 8 13 13 -2 38 -18 30 -10 52 19 52 7 0
13 4 13 10 0 16 -72 47 -140 61 -77 14 -76 14 -60 34 17 21 27 19 122 -17z
m-2926 -160 c-20 -28 -20 -68 -1 -94 20 -26 19 -44 -3 -44 -31 0 -55 36 -56
83 -1 51 16 77 51 77 23 0 23 -1 9 -22z m-148 -121 c3 -30 8 -38 28 -43 22 -6
24 -8 11 -21 -12 -13 -19 -13 -49 0 -46 19 -49 25 -35 70 16 49 41 46 45 -6z
m2820 -10 c3 -13 -4 -17 -32 -17 -35 0 -36 1 -36 36 l0 36 32 -19 c18 -11 34
-27 36 -36z m-2862 -117 c13 0 24 -4 24 -9 0 -10 -48 -51 -59 -51 -17 1 -31
19 -37 48 -6 32 -6 32 20 22 15 -5 38 -10 52 -10z m4084 -44 c0 -55 -26 -72
-62 -39 -25 23 -23 37 10 50 42 17 52 15 52 -11z m-4114 -90 c3 -14 0 -37 -8
-53 -23 -49 -84 -40 -113 18 l-16 30 35 -6 c28 -6 38 -3 52 14 24 28 42 27 50
-3z m4179 -38 c-13 -42 -35 -68 -59 -68 -23 0 -35 21 -36 58 0 15 35 31 73 31
25 1 28 -2 22 -21z m-4208 -215 c-3 -39 -10 -80 -15 -89 -8 -15 -14 -13 -51
22 -33 31 -43 48 -48 83 -6 42 -5 43 16 30 30 -19 55 -1 59 42 l4 34 20 -25
c18 -22 20 -35 15 -97z m4229 77 c28 0 34 -4 34 -20 0 -21 -41 -70 -58 -70
-23 0 -53 38 -59 73 -6 37 -6 37 21 27 15 -5 43 -10 62 -10z m-21 -170 c14
-15 21 -17 32 -9 10 9 13 8 13 -5 0 -25 -27 -73 -45 -80 -39 -15 -45 -8 -45
54 0 65 12 76 45 40z m-4182 -116 c9 -9 -11 -56 -35 -81 -25 -27 -55 -29 -86
-7 -28 19 -30 64 -3 64 10 0 34 7 52 15 36 15 62 19 72 9z m4222 -104 c-6 -20
-79 -80 -97 -80 -4 0 -8 23 -8 50 0 47 1 50 19 40 28 -14 57 -12 71 5 16 20
24 12 15 -15z m-4210 -46 c19 -30 35 -132 28 -181 -4 -26 -12 -34 -40 -44 -56
-18 -123 10 -123 53 0 14 8 18 39 18 55 0 62 14 55 104 -6 64 -5 76 8 76 9 0
23 -12 33 -26z m4129 -130 c15 -17 30 -25 40 -21 20 8 20 3 0 -39 -25 -52 -97
-84 -110 -49 -9 23 18 135 33 135 7 0 23 -12 37 -26z m-4072 -131 c57 -65 12
-203 -66 -203 -27 0 -35 6 -49 35 -9 20 -17 40 -17 45 0 6 22 10 49 10 28 0
52 4 55 9 3 5 2 31 -3 57 -12 65 -1 83 31 47z m4031 -103 c26 0 20 -29 -8 -42
-19 -8 -31 -8 -50 0 -27 12 -31 32 -14 64 l11 20 22 -21 c12 -12 30 -21 39
-21z m-3948 -152 c21 -39 23 -52 14 -75 -16 -43 -49 -73 -81 -73 -38 0 -38 33
0 57 15 10 30 22 34 28 13 17 9 60 -8 83 -9 13 -13 30 -9 40 7 19 12 14 50
-60z m3918 35 c52 -6 61 -22 25 -47 -49 -34 -128 -9 -128 41 0 23 3 25 28 19
15 -4 48 -9 75 -13z m-148 -217 c50 -47 52 -66 7 -66 -29 0 -92 34 -92 49 0
16 23 61 30 61 4 0 29 -20 55 -44z m-3676 -72 c6 -14 11 -44 11 -68 0 -35 -5
-47 -25 -60 -35 -23 -43 -20 -62 18 -16 34 -15 35 10 66 26 31 31 42 28 67 -3
21 26 4 38 -23z m3591 -100 c-16 -18 -81 -16 -88 4 -2 8 11 12 48 12 46 0 51
-2 40 -16z m-3493 -138 c4 -35 2 -46 -8 -46 -15 1 -59 34 -59 45 0 16 46 62
54 55 4 -5 11 -29 13 -54z m78 -111 c25 -24 33 -55 16 -55 -5 0 -16 11 -25 25
-9 14 -23 25 -31 25 -16 0 -20 12 -8 23 11 12 23 8 48 -18z m1972 -21 c23 -14
57 -46 74 -72 18 -26 48 -67 68 -91 l35 -44 4 -321 c3 -262 1 -334 -12 -394
-20 -94 -59 -182 -100 -221 l-32 -31 -42 40 c-23 23 -94 101 -156 174 -63 73
-127 143 -143 155 l-28 21 55 52 c30 29 92 87 138 130 65 62 82 84 82 106 0
16 9 62 20 103 30 113 25 189 -12 189 -14 0 -24 -12 -35 -39 -9 -22 -22 -42
-29 -45 -18 -7 -18 48 -2 206 l12 117 31 -6 c16 -3 49 -16 72 -29z m-627 -311
c0 -5 -9 -35 -20 -67 -24 -72 -26 -172 -4 -247 22 -74 60 -141 173 -299 54
-74 133 -193 177 -263 63 -102 107 -158 213 -270 140 -148 217 -252 246 -334
35 -99 27 -347 -10 -326 -7 5 -50 67 -95 138 -45 72 -99 147 -120 167 -21 20
-64 79 -95 130 -121 197 -156 230 -288 273 -43 14 -117 50 -165 80 -77 49
-161 85 -198 85 -20 0 -80 76 -109 138 -102 215 -50 537 113 705 51 52 183
117 182 90z m370 -252 c14 -26 13 -74 -2 -89 -7 -7 -22 -12 -35 -12 -28 0 -30
22 -7 80 18 44 28 49 44 21z m-134 -78 c-4 -16 -7 -34 -8 -40 -2 -18 -9 -16
-41 13 -24 20 -27 27 -17 39 7 8 26 15 42 15 28 0 30 -2 24 -27z m32 -172 c7
-4 17 -25 22 -45 9 -41 -6 -56 -54 -56 -46 0 -76 52 -37 65 11 3 23 15 26 26
7 20 22 24 43 10z m137 -157 c30 -33 32 -73 4 -108 -20 -25 -62 -35 -73 -17
-3 5 2 23 10 41 9 18 17 50 18 71 1 46 8 48 41 13z m94 -114 c44 -23 64 -139
37 -205 -17 -41 -20 -41 -64 -15 -63 38 -76 125 -32 198 21 34 31 38 59 22z
m191 -221 c15 -27 12 -96 -5 -129 -13 -25 -18 -28 -44 -20 -45 12 -71 29 -71
45 0 8 8 15 19 15 25 0 37 17 46 65 4 22 9 43 11 47 7 11 34 -2 44 -23z m-795
-41 c43 -29 95 -65 117 -79 21 -15 60 -30 86 -33 115 -16 122 -18 152 -49 16
-18 113 -144 215 -282 273 -368 323 -482 313 -715 -3 -80 -10 -117 -27 -155
-41 -94 -113 -144 -204 -145 -56 0 -55 13 4 37 24 9 41 24 45 37 8 33 -22 211
-51 306 -63 202 -185 332 -386 410 -53 20 -75 35 -90 59 -11 18 -60 58 -117
95 -53 35 -106 73 -117 86 -19 21 -19 22 -1 36 18 13 17 15 -17 53 -81 89
-116 210 -96 326 l11 65 43 0 c35 0 56 -9 120 -52z m948 -156 c15 -16 14 -21
-4 -61 -19 -43 -19 -44 -62 -37 -37 6 -78 35 -76 55 0 7 99 59 115 60 6 1 18
-7 27 -17z m103 -178 c8 -18 14 -47 14 -63 0 -35 -28 -47 -84 -37 -58 11 -62
29 -17 65 21 17 42 42 45 56 8 32 23 24 42 -21z m-1264 -44 c14 -16 36 -30 47
-30 25 0 26 -8 5 -38 -21 -30 -43 -17 -78 47 -31 59 -17 70 26 21z m1308 -116
c0 -27 -18 -51 -55 -73 -55 -32 -67 -28 -63 21 3 40 5 43 43 54 56 17 75 17
75 -2z m-1164 -54 c30 0 54 -4 54 -9 0 -19 -52 -71 -71 -71 -29 0 -78 51 -86
90 l-6 34 28 -22 c21 -16 41 -22 81 -22z m144 -119 c0 -46 -74 -69 -112 -34
-30 27 -22 41 23 41 23 1 44 3 47 6 13 14 42 5 42 -13z m1040 -50 c0 -26 -46
-61 -79 -61 -28 0 -71 25 -71 41 0 5 12 9 28 9 15 1 38 7 52 15 37 21 70 19
70 -4z m-1006 -61 c14 0 43 7 63 15 44 18 43 18 43 -1 0 -8 -13 -29 -29 -45
-53 -53 -141 -29 -141 38 0 25 1 25 18 10 10 -10 31 -17 46 -17z m220 -120
c-39 -71 -58 -86 -90 -71 -14 6 -42 23 -61 38 -31 24 -33 28 -18 39 9 7 32 15
53 19 51 9 109 41 124 68 13 22 13 21 16 -10 2 -22 -6 -50 -24 -83z m-183 -69
c119 -119 140 -148 112 -157 -10 -3 -48 -19 -85 -36 -65 -31 -67 -33 -74 -75
-4 -25 -4 -92 0 -151 4 -59 3 -119 -1 -133 -8 -26 -8 -26 -54 -13 -62 19 -132
82 -165 152 -24 49 -29 73 -32 164 -6 149 25 281 90 386 l20 32 41 -32 c23
-18 90 -79 148 -137z m842 70 c15 -15 -2 -31 -32 -31 -31 0 -57 23 -46 41 8
12 63 5 78 -10z m-484 -63 c-27 -52 -64 -92 -105 -110 l-44 -19 -30 33 c-16
18 -30 38 -30 45 0 6 19 14 42 18 23 4 69 18 103 31 75 29 78 29 64 2z m-725
-180 c-4 -66 -1 -116 10 -172 l16 -79 -26 -34 c-14 -18 -48 -59 -76 -90 -28
-32 -66 -81 -85 -110 l-35 -52 4 -153 c6 -172 12 -194 82 -309 25 -42 46 -86
46 -98 0 -19 -7 -16 -77 27 -108 66 -171 127 -225 219 -82 138 -111 216 -116
315 -10 192 65 314 348 561 59 52 82 66 108 66 l32 1 -6 -92z m760 64 c18 -29
-79 -91 -114 -72 -31 17 -26 50 8 50 15 1 41 7 57 15 37 16 42 17 49 7z m-156
-119 c35 -50 69 -127 81 -181 12 -56 15 -321 5 -384 -6 -34 -8 -36 -38 -31
-17 2 -76 -5 -130 -16 -55 -12 -105 -21 -113 -21 -11 0 -13 54 -12 303 1 343
-5 315 84 343 67 21 101 18 123 -13z m180 -13 c-13 -23 -33 -43 -46 -46 -28
-8 -32 -4 -35 32 -2 32 28 54 76 54 l28 0 -23 -40z m52 -51 c0 -30 -53 -79
-85 -79 l-26 0 22 39 c31 55 89 82 89 40z m-10 -114 c0 -35 0 -35 -45 -35 -25
0 -45 4 -45 8 0 18 27 43 55 51 17 5 31 10 33 10 1 1 2 -15 2 -34z m379 -49
c61 -32 140 -136 206 -271 156 -320 173 -416 100 -563 -87 -173 -300 -322
-461 -322 l-44 0 0 46 c0 57 8 72 85 159 86 97 95 117 95 219 0 216 -59 322
-300 538 l-114 103 74 6 c84 7 136 25 225 79 63 39 69 39 134 6z m-982 -161
c28 -14 61 -25 72 -25 20 0 21 -5 21 -143 l0 -143 -91 -48 c-82 -43 -94 -46
-119 -36 -39 16 -65 46 -94 110 -63 139 -51 318 26 389 l21 20 56 -50 c31 -27
79 -61 108 -74z m641 -177 c200 -110 201 -111 213 -153 24 -86 -9 -199 -73
-249 l-33 -26 -6 75 c-8 86 -28 126 -114 223 -55 63 -76 96 -89 140 -6 19 -4
22 17 22 14 0 52 -15 85 -32z m-928 -33 c0 -14 -46 -74 -55 -72 -19 7 -16 35
6 56 21 19 49 28 49 16z m809 -74 c47 -24 107 -90 132 -145 23 -50 25 -136 4
-176 -9 -17 -19 -30 -23 -30 -4 0 -17 16 -29 35 -34 51 -94 79 -160 72 -151
-16 -426 -217 -501 -366 -40 -81 -42 -139 -7 -205 22 -42 23 -46 7 -46 -49 0
-119 36 -174 90 -58 56 -58 56 -58 116 0 132 52 252 162 369 117 126 274 234
407 281 85 30 186 32 240 5z m-774 -73 c-11 -37 -33 -66 -55 -73 -27 -9 -29
-6 -19 30 5 17 21 38 36 47 37 23 46 22 38 -4z m75 -69 c0 -29 -18 -59 -35
-59 -11 0 -15 12 -15 40 0 36 3 40 25 40 19 0 25 -5 25 -21z m676 -164 c-21
-16 -86 -21 -86 -7 0 17 14 22 59 22 43 -1 45 -2 27 -15z m58 -70 c39 -19 97
-92 132 -169 69 -151 84 -417 31 -560 -26 -70 -70 -126 -120 -152 -50 -26 -50
-10 -2 61 26 39 56 88 66 110 35 75 20 185 -40 303 -33 65 -78 109 -150 149
-90 50 -128 79 -146 113 -22 42 -19 63 13 93 64 62 151 82 216 52z m234 -48
c3 -28 -12 -57 -29 -57 -5 0 -9 21 -9 46 0 38 3 45 18 42 10 -2 18 -14 20 -31z
m-660 -129 c22 -22 -69 -108 -115 -108 -35 0 -27 16 22 44 27 17 47 36 51 51
7 27 23 32 42 13z m145 -15 c9 -3 17 -9 17 -13 0 -12 -34 -37 -58 -43 -25 -6
-42 16 -42 57 0 23 2 24 33 14 17 -5 40 -12 50 -15z m-27 -118 c10 -8 36 -15
57 -15 38 0 43 -5 28 -29 -7 -11 -22 -12 -62 -7 -55 7 -69 17 -69 49 0 21 19
22 46 2z m-162 -36 c-21 -23 -86 -44 -110 -35 -25 10 -5 27 64 53 60 22 77 16
46 -18z m119 -67 c15 -19 76 -74 137 -122 60 -48 120 -100 133 -116 l24 -29
-20 -205 c-28 -294 -30 -837 -3 -1035 l18 -140 50 -52 c58 -63 78 -106 78
-170 l0 -47 -28 27 c-33 32 -65 28 -60 -7 3 -18 24 -35 63 -50 10 -3 -43 -66
-56 -66 -4 0 -9 17 -11 37 -2 28 -7 37 -18 34 -8 -3 -34 -6 -58 -9 -34 -3 -45
-9 -52 -28 -12 -31 -27 -30 -42 1 -6 14 -14 25 -18 25 -14 0 -30 -26 -30 -50
0 -33 17 -50 49 -50 37 0 20 -9 -40 -20 -30 -6 -74 -8 -98 -4 -43 6 -43 7 -38
40 4 24 0 40 -13 56 -21 26 -27 18 -32 -40 l-3 -34 -42 31 c-50 36 -72 74 -82
143 l-8 51 77 83 c77 83 78 84 73 128 -4 36 0 54 20 89 14 24 33 50 42 57 20
17 48 70 41 77 -3 4 -23 9 -43 12 l-38 6 -6 308 c-6 289 -11 408 -25 555 -5
52 -4 62 9 62 9 0 17 -10 19 -22 5 -34 64 -32 90 2 17 24 18 28 3 58 -15 29
-21 32 -59 32 l-43 0 -6 167 c-10 241 -9 292 6 269 7 -10 24 -34 40 -54z m227
52 c0 -12 -24 -50 -39 -61 -18 -14 -91 -17 -91 -5 0 21 80 72 113 72 9 0 17
-3 17 -6z m-340 -53 c0 -25 -20 -41 -52 -41 -48 0 -34 51 17 62 26 6 35 1 35
-21z m420 -43 c0 -6 -7 -20 -17 -30 -21 -23 -113 -26 -113 -4 0 20 17 29 70
37 25 3 48 7 53 8 4 0 7 -4 7 -11z m38 -108 c46 -28 42 -50 -8 -50 -39 0 -40
1 -40 35 0 41 4 42 48 15z m-507 -244 c-17 -34 -63 -99 -101 -145 -39 -46 -82
-103 -95 -125 -60 -103 -96 -340 -77 -503 16 -135 27 -163 87 -210 84 -65 107
-76 156 -77 58 -1 48 -16 -15 -23 -96 -11 -178 30 -240 120 -128 186 -120 428
24 718 76 153 131 233 228 332 l57 59 3 -43 c2 -31 -4 -57 -27 -103z m730 -92
c47 -68 107 -204 129 -290 22 -86 27 -242 9 -309 -18 -72 -51 -145 -64 -145
-11 0 -10 10 1 53 20 70 19 236 0 320 -30 127 -100 235 -180 278 -25 13 -46
30 -46 36 0 19 84 103 103 103 9 0 30 -21 48 -46z m-711 -31 c-1 -10 -7 -31
-14 -48 l-12 -30 -18 27 c-14 21 -15 31 -6 47 13 26 50 28 50 4z m10 -159 c0
-31 -2 -34 -30 -34 -20 0 -30 5 -30 15 0 8 5 15 10 15 6 0 15 12 20 26 13 34
30 22 30 -22z m588 38 c15 -10 6 -38 -15 -46 -20 -8 -43 11 -43 35 0 20 33 26
58 11z m-584 -129 c3 -16 9 -164 12 -330 l7 -303 -49 0 c-57 0 -119 26 -154
64 -24 26 -25 33 -23 140 2 131 24 233 80 366 l38 90 41 0 c37 0 42 -3 48 -27z
m414 -1229 c31 -22 29 -50 -5 -57 -36 -7 -45 2 -37 41 7 36 11 38 42 16z"/>
<path d="M4124 10756 c-3 -8 -4 -27 -2 -43 2 -22 9 -29 31 -31 26 -3 27 -2 27
42 0 43 -2 46 -25 46 -14 0 -28 -6 -31 -14z"/>
<path d="M4033 10743 c-18 -7 -16 -27 5 -46 29 -26 42 -20 42 18 0 35 -12 43
-47 28z"/>
<path d="M3197 5492 c-9 -10 -39 -26 -67 -36 -53 -19 -100 -65 -100 -97 0 -24
17 -24 55 1 29 19 30 19 40 -1 11 -19 12 -19 49 6 38 26 56 26 56 -1 0 -25 27
-15 59 21 20 23 31 46 31 65 0 38 -26 40 -42 5 -20 -44 -48 -26 -48 31 0 29
-11 31 -33 6z"/>
<path d="M2990 5449 c-54 -22 -84 -79 -41 -79 33 0 51 11 66 41 26 48 21 56
-25 38z"/>
<path d="M5293 5223 c-13 -41 -4 -60 21 -50 18 7 31 50 22 72 -10 27 -31 16
-43 -22z"/>
<path d="M5190 5193 c-21 -27 -25 -91 -6 -96 15 -4 45 46 52 86 8 46 -14 51
-46 10z"/>
<path d="M5087 5152 c-32 -51 -47 -112 -28 -112 31 0 71 68 71 120 0 44 -12
42 -43 -8z"/>
<path d="M4970 5098 c-18 -51 -34 -55 -38 -10 -5 46 -17 40 -42 -23 -24 -59
-45 -70 -60 -30 -11 30 -30 33 -37 5 -3 -12 -18 -27 -34 -36 -29 -14 -29 -14
-29 16 0 30 -13 37 -37 22 -6 -4 -21 -29 -32 -56 l-21 -48 39 7 c27 4 49 2 70
-9 40 -21 38 -21 56 19 l14 36 21 -21 c25 -25 47 -26 55 0 5 16 15 20 48 20
41 0 43 2 65 49 30 65 29 101 -1 101 -18 0 -26 -9 -37 -42z"/>
<path d="M4520 5543 c0 -14 65 -143 72 -143 3 0 9 13 13 30 8 38 -11 97 -35
110 -22 12 -50 13 -50 3z"/>
<path d="M4490 5408 c0 -12 8 -30 17 -40 9 -10 16 -32 16 -48 0 -34 1 -34 29
-19 16 9 19 17 13 46 -11 58 -26 83 -52 83 -17 0 -23 -6 -23 -22z"/>
<path d="M4432 5303 c3 -33 0 -38 -20 -41 -20 -3 -23 -8 -17 -30 3 -15 13 -38
22 -51 l16 -24 19 26 c11 15 28 27 38 27 15 0 16 5 9 47 -15 80 -74 120 -67
46z"/>
<path d="M3936 164 c-3 -9 -6 -20 -6 -25 0 -15 39 -49 56 -49 14 0 15 7 11 37
-8 49 -47 73 -61 37z"/>
</g>
</svg>
