<?xml version="1.0" standalone="no"?>
<!DOCTYPE svg PUBLIC "-//W3C//DTD SVG 20010904//EN"
 "http://www.w3.org/TR/2001/REC-SVG-20010904/DTD/svg10.dtd">
<svg version="1.0" xmlns="http://www.w3.org/2000/svg"
 width="1174.000000pt" height="1280.000000pt" viewBox="0 0 1174.000000 1280.000000"
 preserveAspectRatio="xMidYMid meet">
<g transform="translate(0.000000,1280.000000) scale(0.100000,-0.100000)"
fill="#000000" stroke="none">
<path d="M5732 12785 c-85 -19 -196 -74 -258 -129 -252 -222 -208 -596 90
-765 143 -82 346 -101 500 -47 43 15 98 38 121 52 243 142 317 436 168 661
-123 185 -381 280 -621 228z"/>
<path d="M3815 12759 c-263 -27 -428 -73 -650 -182 -266 -131 -502 -269 -1050
-612 -486 -305 -633 -393 -945 -563 -331 -180 -491 -254 -865 -402 -337 -133
-332 -129 -274 -195 63 -71 156 -103 334 -111 147 -8 367 16 493 52 277 80
710 284 1194 563 531 305 687 421 871 654 26 31 46 47 61 47 23 0 23 -1 23
-132 0 -243 69 -421 230 -589 194 -202 451 -297 786 -287 117 3 122 2 119 -17
-2 -11 -19 -34 -37 -50 -98 -91 -53 -256 115 -425 134 -136 321 -243 515 -296
89 -25 117 -28 255 -28 85 0 182 6 215 13 79 16 249 69 269 84 14 11 15 50 5
392 -6 209 -15 384 -19 389 -5 5 -35 2 -72 -7 -157 -39 -324 -45 -445 -16
-125 30 -249 111 -313 203 -37 55 -70 153 -70 211 0 53 -3 50 158 188 120 103
173 166 219 264 79 165 42 359 -105 554 -120 158 -267 241 -507 284 -108 19
-385 27 -510 14z"/>
<path d="M7517 12759 c-257 -29 -438 -105 -553 -231 -191 -210 -250 -436 -161
-621 46 -98 99 -161 219 -264 161 -138 158 -135 158 -188 0 -58 -33 -156 -70
-211 -64 -92 -188 -173 -313 -203 -121 -29 -288 -23 -445 16 -37 9 -67 12 -72
7 -4 -5 -13 -180 -19 -389 -10 -342 -9 -381 5 -392 20 -15 190 -68 269 -84 33
-7 130 -13 215 -13 138 0 166 3 255 28 195 53 373 155 510 291 173 173 219
338 120 430 -18 16 -35 39 -37 50 -3 19 2 20 119 17 335 -10 592 85 786 287
161 168 230 346 230 589 0 131 0 132 23 132 15 0 35 -16 61 -47 184 -233 340
-349 871 -654 484 -279 917 -483 1194 -563 126 -36 346 -60 493 -52 178 8 271
40 334 111 58 66 63 62 -274 195 -374 148 -534 222 -865 402 -312 170 -459
258 -945 563 -700 439 -1069 643 -1292 715 -223 72 -582 107 -816 79z"/>
<path d="M5504 11729 c-8 -13 -7 -69 6 -539 9 -304 28 -980 60 -2140 5 -195
12 -430 16 -522 5 -129 3 -168 -6 -168 -7 0 -70 16 -141 35 -492 133 -783 293
-929 511 -75 113 -103 209 -104 361 -1 152 5 163 68 105 94 -86 210 -126 371
-125 97 1 120 5 194 32 194 71 351 202 351 293 0 119 -297 206 -611 180 -170
-14 -268 -39 -394 -101 -272 -134 -439 -379 -439 -641 0 -360 294 -695 858
-981 91 -46 166 -86 166 -89 0 -3 -23 -18 -51 -34 -141 -79 -344 -258 -444
-391 -190 -253 -234 -575 -120 -880 82 -219 200 -378 405 -545 69 -56 294
-208 379 -257 47 -26 64 -43 43 -43 -15 0 -168 -96 -249 -156 -121 -89 -199
-161 -269 -249 -222 -276 -244 -606 -67 -995 99 -218 333 -477 593 -658 2 -1
-27 -33 -66 -70 -168 -161 -257 -324 -284 -521 -28 -204 53 -434 209 -591 79
-80 235 -204 349 -279 45 -29 82 -56 82 -60 -1 -3 -37 -35 -81 -71 -237 -191
-329 -349 -329 -565 0 -187 86 -373 244 -524 58 -56 62 -37 26 145 -43 215
-40 300 13 407 30 61 55 92 126 159 77 71 220 174 272 193 15 5 17 -17 23
-207 11 -339 24 -818 36 -1288 6 -239 13 -441 15 -447 3 -8 21 -13 45 -13 24
0 42 5 45 13 2 6 8 194 14 417 24 908 43 1525 47 1529 2 2 34 -14 71 -37 172
-102 285 -208 341 -321 36 -73 37 -78 37 -185 0 -84 -7 -144 -28 -245 -34
-157 -28 -175 36 -113 95 91 180 227 216 346 26 85 28 230 5 320 -36 141 -140
278 -318 421 -41 33 -75 63 -75 66 -1 3 50 40 112 81 147 100 303 232 367 310
107 133 164 295 163 463 -2 220 -91 407 -282 593 -61 60 -72 76 -59 83 47 27
208 160 283 236 195 195 317 401 384 648 121 441 -67 804 -581 1115 -45 28
-85 50 -90 50 -21 0 -4 17 42 43 28 16 105 65 173 109 293 193 447 349 556
563 209 411 143 819 -185 1148 -92 93 -221 194 -316 249 -32 18 -57 35 -58 38
0 3 74 42 164 88 508 257 783 536 850 864 20 97 20 139 0 236 -30 151 -132
312 -266 422 -80 65 -239 144 -343 171 -262 67 -616 38 -761 -62 -75 -51 -82
-90 -31 -165 39 -59 105 -110 217 -168 120 -62 185 -79 305 -79 151 0 270 41
361 125 29 26 48 38 54 32 17 -17 23 -155 11 -232 -24 -154 -76 -255 -191
-373 -160 -163 -429 -293 -839 -404 -71 -19 -134 -35 -141 -35 -9 0 -10 38 -6
158 4 86 16 479 26 872 11 393 25 886 31 1095 30 1054 34 1236 25 1246 -15 14
-723 12 -732 -2z m130 -4904 c8 -308 13 -562 11 -563 -6 -6 -132 68 -193 112
-199 147 -310 313 -327 492 -21 220 130 437 412 593 l68 37 7 -56 c4 -30 14
-307 22 -615z m699 551 c145 -103 253 -255 278 -391 37 -202 -76 -425 -304
-599 -45 -34 -197 -126 -210 -126 -5 0 -7 42 -3 108 3 59 11 305 16 547 6 242
13 472 16 511 l5 72 70 -39 c39 -21 98 -58 132 -83z m-648 -2393 c4 -170 10
-406 14 -526 3 -119 5 -217 3 -217 -1 0 -42 24 -90 54 -194 120 -314 310 -314
494 1 173 80 290 322 474 19 15 40 27 46 28 8 0 14 -92 19 -307z m468 253
c155 -117 232 -208 273 -321 54 -154 -7 -352 -159 -512 -55 -59 -255 -191
-234 -155 3 4 10 240 17 525 8 293 17 517 22 517 5 0 42 -24 81 -54z m-410
-2346 l6 -235 -68 73 c-184 196 -186 370 -7 514 l51 40 6 -79 c4 -43 9 -184
12 -313z m349 330 c29 -25 59 -66 79 -106 28 -57 31 -71 27 -128 -7 -84 -49
-163 -139 -258 l-69 -73 5 170 c3 94 8 234 11 312 7 162 2 157 86 83z"/>
<path d="M2780 11672 c-19 -10 -84 -56 -145 -103 -569 -438 -1041 -722 -1500
-903 -156 -61 -188 -86 -167 -130 41 -92 369 -115 643 -46 190 49 640 279 989
507 246 162 370 253 397 295 l26 39 -56 117 c-31 64 -62 140 -68 167 -7 28
-17 56 -22 63 -13 17 -56 14 -97 -6z"/>
<path d="M8863 11678 c-5 -7 -14 -35 -21 -63 -7 -27 -38 -103 -69 -167 l-56
-117 26 -39 c57 -87 577 -424 942 -611 342 -176 523 -231 753 -231 187 0 310
32 334 86 20 44 -11 69 -167 130 -442 174 -831 404 -1400 828 -126 94 -243
177 -258 184 -36 15 -72 15 -84 0z"/>
<path d="M3028 11206 c-16 -8 -76 -58 -135 -110 -302 -266 -546 -430 -978
-657 -132 -70 -140 -76 -143 -106 -4 -39 9 -47 105 -62 87 -13 215 -14 303 -1
187 27 428 133 665 291 196 132 513 367 531 394 24 37 3 65 -82 109 -41 21
-104 65 -139 97 -69 62 -84 67 -127 45z"/>
<path d="M8585 11161 c-35 -32 -98 -76 -139 -97 -85 -44 -106 -72 -82 -109 18
-27 335 -262 531 -394 237 -158 478 -264 665 -291 88 -13 216 -12 303 1 96 15
109 23 105 62 -3 30 -11 36 -143 106 -432 227 -676 391 -978 657 -109 97 -148
124 -179 124 -10 0 -47 -27 -83 -59z"/>
<path d="M3490 10953 c-8 -3 -69 -61 -135 -127 -147 -149 -286 -269 -470 -409
-215 -162 -222 -169 -210 -203 16 -46 85 -66 210 -60 55 3 125 12 155 21 131
40 403 194 549 311 31 25 100 88 153 141 106 104 152 178 146 236 l-3 32 -75
8 c-69 8 -259 41 -291 51 -8 2 -21 2 -29 -1z"/>
<path d="M8150 10939 c-41 -10 -122 -24 -180 -30 -58 -6 -108 -13 -112 -16
-16 -9 -7 -66 17 -117 32 -67 221 -253 350 -345 192 -135 396 -240 523 -266
147 -32 297 -8 317 49 12 34 5 41 -210 203 -184 140 -323 261 -470 409 -66 67
-129 124 -140 126 -11 3 -54 -3 -95 -13z"/>
</g>
</svg>
