<svg id="Layer_1" data-name="Layer 1" xmlns="http://www.w3.org/2000/svg" viewBox="0 0 177.27 95.54"><defs><style>.cls-1{font-size:42.64px;}.cls-1,.cls-2{font-family:MyriadPro-Regular, Myriad Pro;}.cls-2{font-size:50.44px;}</style></defs><title>logo_v2</title><path d="M22.7,3.42c-6.73,6.26-12.91,12.76-15,22-2.35,10.26-1.85,21.5-1.57,32,.42,15.42,2.05,40.21,22.77,40.71,3.86.09,3.86-5.91,0-6C10.58,91.64,12.09,64.12,12,51.7c0-8.08-.36-16.78,1.45-24.69C15.35,18.78,21,13.21,26.94,7.66,29.77,5,25.52.79,22.7,3.42Z" transform="translate(-5.86 -2.54)"/><path d="M46.88,97.21c6.73-6.26,12.9-12.77,15-22,2.35-10.26,1.85-21.5,1.57-31.95C63.05,27.84,61.43,3,40.71,2.54c-3.86-.09-3.86,5.91,0,6C59,9,57.49,36.5,57.57,48.92c0,8.08.36,16.78-1.46,24.7C54.23,81.84,48.6,87.41,42.63,93c-2.83,2.64,1.42,6.88,4.25,4.25Z" transform="translate(-5.86 -2.54)"/><text class="cls-1" transform="translate(15.04 65.85)">H</text><text class="cls-2" transform="translate(71.09 64.46)">ealth</text></svg>