<svg id="Layer_1" data-name="Layer 1" xmlns="http://www.w3.org/2000/svg" viewBox="0 0 49.28 27.86"><defs><style>.cls-1{font-size:11.33px;}.cls-1,.cls-2{font-family:MyriadPro-Regular, Myriad Pro;}.cls-2{font-size:13.4px;}</style></defs><title>preparation_logo</title><path d="M5.6,3.2C.63,7.91.54,13.05.8,19.65c.19,4.72.89,10.23,6.46,11.07,1.42.22,2-1.95.6-2.17C2.18,27.69,3,20.3,3,16.41c0-4.73.67-8.29,4.19-11.61,1.06-1-.53-2.59-1.59-1.6Z" transform="translate(-0.72 -2.89)"/><path d="M12.9,30.44c5-4.71,5.07-9.85,4.81-16.45-.19-4.72-.9-10.23-6.46-11.07-1.42-.22-2,2-.6,2.17,5.68.86,4.87,8.25,4.86,12.14,0,4.73-.68,8.29-4.2,11.62-1.05,1,.54,2.58,1.59,1.59Z" transform="translate(-0.72 -2.89)"/><text class="cls-1" transform="translate(4.84 18.73)">H</text><text class="cls-2" transform="translate(21.07 18.36)">ealth</text></svg>